<svg xmlns="http://www.w3.org/2000/svg" viewBox="0 0 500 500"><g id="freepik--character-1--inject-17"><path d="M190.08,413.06l-25.21-9.28-25.48,9.29a1.35,1.35,0,0,1-1.81-1.27h0a1.36,1.36,0,0,1,.78-1.22l26.51-12.3,26.24,12.3a1.33,1.33,0,0,1,.78,1.22h0A1.34,1.34,0,0,1,190.08,413.06Z" style="fill:#263238"></path><path d="M190.08,413.06l-25.21-9.28-25.48,9.29a1.35,1.35,0,0,1-1.81-1.27h0a1.36,1.36,0,0,1,.78-1.22l26.51-12.3,26.24,12.3a1.33,1.33,0,0,1,.78,1.22h0A1.34,1.34,0,0,1,190.08,413.06Z" style="fill:#fff;opacity:0.30000000000000004"></path><polygon points="158.93 405.94 164.87 403.78 170.54 405.87 170.54 400.93 164.87 398.28 158.93 401.03 158.93 405.94" style="opacity:0.2"></polygon><path d="M164.74,413.28h0a2.24,2.24,0,0,1-2.23-2l-.71-7.47v-62h5.87v62l-.71,7.47A2.24,2.24,0,0,1,164.74,413.28Z" style="fill:#263238"></path><path d="M164.74,413.28h0a2.24,2.24,0,0,1-2.23-2l-.71-7.47v-62h5.87v62l-.71,7.47A2.24,2.24,0,0,1,164.74,413.28Z" style="fill:#fff;opacity:0.30000000000000004"></path><rect x="161.8" y="341.76" width="5.88" height="7.22" style="opacity:0.2"></rect><path d="M151.55,277.87a2.5,2.5,0,0,1,2.25,1.29,86.9,86.9,0,0,1,10.88,60,2.2,2.2,0,0,1-2.1,1.95c-1.63.12-30.64,0-31.69,0a2.92,2.92,0,0,1-2.95-3.4,81.12,81.12,0,0,0-10.33-55.79,2.69,2.69,0,0,1,2.43-4C120.88,277.85,149.7,277.9,151.55,277.87Z" style="fill:#B470F0"></path><path d="M151.55,277.87a2.5,2.5,0,0,1,2.25,1.29,86.9,86.9,0,0,1,10.88,60,2.2,2.2,0,0,1-2.1,1.95c-1.63.12-30.64,0-31.69,0a2.92,2.92,0,0,1-2.95-3.4,81.12,81.12,0,0,0-10.33-55.79,2.69,2.69,0,0,1,2.43-4C120.88,277.85,149.7,277.9,151.55,277.87Z" style="opacity:0.2"></path><path d="M127.94,337.69a81.12,81.12,0,0,0-10.33-55.79c-1.81-3,2.88-5.73,4.68-2.74a86.9,86.9,0,0,1,10.88,60c-.62,3.43-5.85,2-5.23-1.44Z" style="fill:#B470F0"></path><g style="opacity:0.1"><path d="M127.94,337.69a81.12,81.12,0,0,0-10.33-55.79c-1.81-3,2.88-5.73,4.68-2.74a86.9,86.9,0,0,1,10.88,60c-.62,3.43-5.85,2-5.23-1.44Z" style="fill:#fff"></path></g><path d="M218.42,336.12a91.36,91.36,0,0,0-20.34-2.8c-7.06-.18-33.5,0-39.78,0a91.56,91.56,0,0,0-22.7,2.83c-4.66,1.19-3.22,7.91,1,8,.37,0,80.29,0,80.58,0C221.58,344.31,223.18,337.33,218.42,336.12Z" style="fill:#B470F0"></path><path d="M218.42,336.12a91.36,91.36,0,0,0-20.34-2.8c-7.06-.18-33.5,0-39.78,0a91.56,91.56,0,0,0-22.7,2.83c-4.66,1.19-3.22,7.91,1,8,.37,0,80.29,0,80.58,0C221.58,344.31,223.18,337.33,218.42,336.12Z" style="opacity:0.30000000000000004"></path><path d="M137.77,344a83.25,83.25,0,0,1,41.07,0c5.07,1.29,7.24-6.56,2.16-7.85a92.3,92.3,0,0,0-45.4,0c-5.07,1.29-2.92,9.14,2.17,7.85Z" style="fill:#B470F0"></path><g style="opacity:0.30000000000000004"><path d="M137.77,344a83.25,83.25,0,0,1,41.07,0c5.07,1.29,7.24-6.56,2.16-7.85a92.3,92.3,0,0,0-45.4,0c-5.07,1.29-2.92,9.14,2.17,7.85Z" style="fill:#fff"></path></g><rect x="151.46" y="304.54" width="35.8" height="14.35" style="fill:#263238"></rect><rect x="151.46" y="304.54" width="35.8" height="14.35" style="fill:#fff;opacity:0.2"></rect><polygon points="206.53 380.74 201.82 401.25 207.67 403.51 216.09 382.89 206.53 380.74" style="fill:#b55b52"></polygon><path d="M207.33,402.17,202,399.33a.56.56,0,0,0-.69.13l-3.8,4.39a.93.93,0,0,0,.09,1.31,1,1,0,0,0,.16.12c2.23,1.15,4.26,2.08,7,3.57,3.24,1.75,2.21,1.69,6,3.8,2.28,1.27,4.11-1.12,3.2-1.77-4.16-3-4.71-5-5.57-7.54A2.26,2.26,0,0,0,207.33,402.17Z" style="fill:#263238"></path><path d="M159.13,317.12l28.72-1.58s47.71,7.46,47,20.8-20.13,55.4-20.13,55.4l-11.39-3.16s8.68-42.29,14.33-49.3c0,0-35.63-4.18-44.55-6.56C168.25,331.42,156.42,333.63,159.13,317.12Z" style="fill:#263238"></path><path d="M159.13,317.12l28.72-1.58s47.71,7.46,47,20.8-20.13,55.4-20.13,55.4l-11.39-3.16s8.68-42.29,14.33-49.3c0,0-35.63-4.18-44.55-6.56C168.25,331.42,156.42,333.63,159.13,317.12Z" style="fill:#fff;opacity:0.2"></path><path d="M212.88,338.7a25.57,25.57,0,0,0-2.19-11.52c-2.65-6-24.49-9.58-34.94-11l-16.62.91c-2.71,16.51,9.12,14.3,14,15.6C180,334.56,202.84,337.47,212.88,338.7Z" style="opacity:0.2"></path><polygon points="187.02 386.39 186.27 407.42 192.6 407.72 196.81 386.69 187.02 386.39" style="fill:#b55b52"></polygon><path d="M192.15,405.81l-6.14.13a.57.57,0,0,0-.55.45l-1.17,5.79a1,1,0,0,0,.73,1.13l.2,0c2.56-.09,4.82-.28,8-.33,3.76-.07,2.81.4,7.23.38,2.66,0,3.09-3,2-3.17-5.17-.56-6.69-2.1-8.71-3.91A2.3,2.3,0,0,0,192.15,405.81Z" style="fill:#263238"></path><polygon points="202.47 386.09 216.8 390.08 214.18 395.59 201.12 392.34 202.47 386.09" style="fill:#263238"></polygon><polygon points="202.47 386.09 216.8 390.08 214.18 395.59 201.12 392.34 202.47 386.09" style="opacity:0"></polygon><path d="M166.82,317.12s38.44,1.36,40.7,13.12-10.62,64.44-10.62,64.44H185.36s1.36-47.26,5.21-57.21c0,0-31.66,5-40-2.21-6-5.13,1.13-18.14,1.13-18.14Z" style="fill:#263238"></path><path d="M166.82,317.12s38.44,1.36,40.7,13.12-10.62,64.44-10.62,64.44H185.36s1.36-47.26,5.21-57.21c0,0-31.66,5-40-2.21-6-5.13,1.13-18.14,1.13-18.14Z" style="fill:#fff;opacity:0.2"></path><polygon points="184.23 391.74 198.71 392.42 197.35 398.19 184.23 397.51 184.23 391.74" style="fill:#263238"></polygon><polygon points="184.23 391.74 198.71 392.42 197.35 398.19 184.23 397.51 184.23 391.74" style="opacity:0"></polygon><path d="M217.89,272.53l6.16-2.3-5.25-5.07s-5.37,2.39-4,5.11Z" style="fill:#b55b52"></path><polygon points="228.08 265.11 222.09 262.29 218.8 265.17 224.05 270.23 228.08 265.11" style="fill:#b55b52"></polygon><polygon points="210.06 272.8 213.69 268.85 218.54 272.98 214.61 277.63 210.06 272.8" style="fill:#B470F0"></polygon><polygon points="210.06 272.8 213.69 268.85 218.54 272.98 214.61 277.63 210.06 272.8" style="fill:#fff;opacity:0.8"></polygon><path d="M185.47,248.48s3.79,4.3,9.26,18.39,11.53,10,18.18,2.38l5.47,5S208.16,287,201.72,287c-7.16,0-14.11-11.11-15.51-18.86S185.47,248.48,185.47,248.48Z" style="fill:#263238"></path><path d="M186.81,256.62l-2-1.7-1,5.42c.14,1.57.32,3.11.57,4.5.8,4.43,3.8,10.23,7,15.05A180.29,180.29,0,0,0,186.81,256.62Z" style="opacity:0.4"></path><path d="M147.92,290.41l.57,29.34,21.6.73c2.82,0,3.48-1.88,4.07-4l1.06-3.83.94,3.46c.57,2.12,3.53,2.47,5.67,2l9.41-2.33-2.16-28.89s1.45-21.76-2-35.69a7.47,7.47,0,0,0-5.72-5.14,57.09,57.09,0,0,0-33.77,2.56,3.24,3.24,0,0,0-2,3.4Z" style="fill:#263238"></path><path d="M174.71,278a.9.9,0,1,1-.9-.9A.9.9,0,0,1,174.71,278Z" style="opacity:0.5"></path><path d="M175.59,290.41a.9.9,0,1,1-.9-.9A.9.9,0,0,1,175.59,290.41Z" style="opacity:0.5"></path><path d="M176,302.69a.9.9,0,1,1-.89-.9A.9.9,0,0,1,176,302.69Z" style="opacity:0.5"></path><path d="M160.26,244.26a19.08,19.08,0,0,1,10.75-.75l2.21,1.26.77,2.45-2.79,2.19-6.6.68-5.45-2.26.3-2.42Z" style="fill:#263238"></path><path d="M172.34,245.53c-2.19-.59-3.74-4.4-1.94-6.85l-9.56-7.4c1.4,13.35.71,10.92-1.27,14.76,0,0,1.37,4.45,9.08,3.07C173.65,248.21,172.34,245.53,172.34,245.53Z" style="fill:#b55b52"></path><path d="M170.4,238.68l-9.62-7.13c.24,1.88.27,1.89.4,3.25,1,2.07,3.08,7.33,8.51,7.49C169.45,241.34,169.72,239.28,170.4,238.68Z" style="opacity:0.2"></path><polygon points="159.7 252.58 162.33 261.13 168.43 269.94 173.44 275.15 175.31 267.52 174.71 251.59 174.61 248.15 173.21 246.18 170.99 248.13 169.09 248.86 166.31 248.89 159.02 246.67 159.7 252.58" style="fill:#B470F0"></polygon><polygon points="159.7 252.58 162.33 261.13 168.43 269.94 173.44 275.15 175.31 267.52 174.71 251.59 174.61 248.15 173.21 246.18 170.99 248.13 169.09 248.86 166.31 248.89 159.02 246.67 159.7 252.58" style="fill:#B470F0;opacity:0.8"></polygon><polygon points="159.7 252.58 162.33 261.13 168.43 269.94 173.44 275.15 175.31 267.52 174.71 251.59 174.61 248.15 173.21 246.18 170.99 248.13 169.09 248.86 166.31 248.89 159.02 246.67 159.7 252.58" style="fill:#fff;opacity:0.5"></polygon><path d="M165.59,251.59a11.66,11.66,0,0,0,2.84,3.62s-1.22,8.72.66,14.82l4.35,5.12,1.27-6.33s-2-10.12-4.56-13.95a16.11,16.11,0,0,0,1.45-4.18L170,249.41s-2.17,1.55-3.47.47Z" style="fill:#B470F0"></path><path d="M159.53,245.05s4,3.43,8.07,3.43,4.49-4.22,4.49-4.22l1.7,1.84a12,12,0,0,1-1.39,6.15l-4.21-2.85-2.86,4.12a17.27,17.27,0,0,1-6.67-6Z" style="fill:#B470F0"></path><path d="M159.53,245.05s4,3.43,8.07,3.43,4.49-4.22,4.49-4.22l1.7,1.84a12,12,0,0,1-1.39,6.15l-4.21-2.85-2.86,4.12a17.27,17.27,0,0,1-6.67-6Z" style="fill:#fff;opacity:0.8"></path><path d="M160.26,244.26s-3.3,10.17,13,29.57c0,0,2.92-23.77-2.2-30.32l3.56,1.41,3.7,5.59-2.71,1.74,3.35,1.49s-.48,7.71-5.2,22.53c0,0-10.68-8.26-17.66-19.41l3.25-2.59-4.34-.69,1.93-7.72Z" style="fill:#263238"></path><path d="M160.26,244.26s-3.3,10.17,13,29.57c0,0,2.92-23.77-2.2-30.32l3.56,1.41,3.7,5.59-2.71,1.74,3.35,1.49s-.48,7.71-5.2,22.53c0,0-10.68-8.26-17.66-19.41l3.25-2.59-4.34-.69,1.93-7.72Z" style="opacity:0.30000000000000004"></path><path d="M146.05,254.87l4.23,23.57.49-.61a58.06,58.06,0,0,0-.92-23.66l-1.28.69Z" style="opacity:0.4"></path><path d="M173,213.18s4.6,8.51,1.06,13.69-9.55-11.59-9.55-11.59Z" style="fill:#263238"></path><path d="M177,231.69a8.61,8.61,0,0,1-.12,1,9.68,9.68,0,0,1-3.68,6.1,8.88,8.88,0,0,1-6.15,1.84,8.71,8.71,0,0,1-4.37-1.64c-4-2.85-4.66-6.86-6.26-13.55a9.41,9.41,0,0,1,11.14-11.53C174.71,215.45,177.42,225.34,177,231.69Z" style="fill:#b55b52"></path><path d="M167.07,225.53c.06.55.47.95.83.88s.58-.57.48-1.12-.47-.94-.83-.88S167,225,167.07,225.53Z" style="fill:#263238"></path><path d="M173.31,224.43c.06.55.47.94.83.88s.57-.57.48-1.12-.48-.94-.84-.88S173.22,223.9,173.31,224.43Z" style="fill:#263238"></path><path d="M171.38,225.05a19.94,19.94,0,0,0,3.46,4.25,3.22,3.22,0,0,1-2.56,1Z" style="fill:#a02724"></path><path d="M175.15,221.36a.38.38,0,0,1-.34,0,2.64,2.64,0,0,0-2.37.14.33.33,0,0,1-.38-.54h0a3.26,3.26,0,0,1,3-.21.32.32,0,0,1,.19.42h0A1,1,0,0,1,175.15,221.36Z" style="fill:#263238"></path><path d="M165.4,223.26a.29.29,0,0,1-.24-.49h0a3.27,3.27,0,0,1,2.74-1.24.31.31,0,0,1,.28.36h0a.33.33,0,0,1-.36.29h0a2.67,2.67,0,0,0-2.15,1A.36.36,0,0,1,165.4,223.26Z" style="fill:#263238"></path><path d="M159.93,216.13l1,2.87a2.26,2.26,0,0,0-.48,3c1.52,2.27,1,6.45-.58,8.42,0,0-.3-1.07-1.15-.61s.67,6,3.05,8.29c0,0-3.23-1.81-6.08-7.36-2.64-5.12-3.84-9.62-3.2-12Z" style="fill:#263238"></path><path d="M154.49,231.53a6.53,6.53,0,0,0,4.27,2.61c2.27.34,3.12-1.76,2.26-3.76-.79-1.77-2.91-4.14-5.08-3.54A2.91,2.91,0,0,0,154.49,231.53Z" style="fill:#b55b52"></path><path d="M152.36,220.24s-1.57-3.72,3.89-8.09,12.92-2.34,16.44-5.84,6,7.22-2.48,10.32A70.77,70.77,0,0,1,152.36,220.24Z" style="fill:#263238"></path><path d="M172.16,232.27a20.75,20.75,0,0,0-1.68,2.46l-.49-.19c-2.21-.88-2.94-2-3.09-3a3.41,3.41,0,0,1,.53-2.18,11.17,11.17,0,0,0,4,2.6A7.82,7.82,0,0,0,172.16,232.27Z" style="fill:#263238"></path><path d="M171.41,232l-.52.71c-2.07-.82-3.42-1.68-3.82-2.57a3,3,0,0,1,.36-.74A11.17,11.17,0,0,0,171.41,232Z" style="fill:#fff"></path><path d="M170,234.54c-2.21-.88-2.94-2-3.09-3a7.54,7.54,0,0,1,2.26,1.45A2.9,2.9,0,0,1,170,234.54Z" style="fill:#a02724"></path><path d="M133.2,281c1,2.24,2.84,2.46,4.69,1.54a12,12,0,0,0,4.14-3.85c.84-1.21,2-3,3.13-4.95,2.47-4.15,5.05-8.76,5.05-8.76a9.48,9.48,0,0,0,1.7-8.31c-1.49-4.45-3.33-7-5.16-7.24C141.77,251.8,131.33,277,133.2,281Z" style="fill:#263238"></path><path d="M137.89,282.52a12,12,0,0,0,4.14-3.85c.84-1.21,2-3,3.13-4.95a47.15,47.15,0,0,0-2.94-4.67l-2.51,7.08s-4.42,1-5.12,3.31C134.33,280.31,135.83,281.55,137.89,282.52Z" style="isolation:isolate;opacity:0.2"></path><path d="M138,262.3l8.34,31.78a1.63,1.63,0,0,0,1.74,1.17l22.13-2.95a1.2,1.2,0,0,0,1-1.53L162.94,259a1.63,1.63,0,0,0-1.74-1.16l-22.13,2.94A1.21,1.21,0,0,0,138,262.3Z" style="fill:#263238"></path><path d="M138,262.3l8.34,31.78a1.63,1.63,0,0,0,1.74,1.17l21.12-2.81a1.21,1.21,0,0,0,1-1.54l-8.34-31.78a1.62,1.62,0,0,0-1.74-1.17l-21.12,2.81A1.21,1.21,0,0,0,138,262.3Z" style="fill:#fff;opacity:0.4"></path><path d="M153.4,274.42a2.32,2.32,0,0,1,2.49,1.67,1.73,1.73,0,0,1-1.48,2.21,2.35,2.35,0,0,1-2.5-1.68A1.73,1.73,0,0,0,153.4,274.42Z" style="fill:#fff;opacity:0.30000000000000004"></path><path d="M136.24,288.47c1.5.79,4.86-.41,5.88-.81l.32-.12s1.83-6-2.95-9.23a.39.39,0,0,0-.11-.06c-1.52-.82-6.24.23-6.38,1.83C132.43,286.47,134.47,287.54,136.24,288.47Z" style="fill:#263238"></path><path d="M139.16,283.35a7.6,7.6,0,0,0,3,4.31l.32-.12s1.83-6-2.95-9.23a.39.39,0,0,0-.11-.06C139,278.79,138.31,280.21,139.16,283.35Z" style="isolation:isolate;opacity:0.2"></path><path d="M146.05,275.76s-3.07-.13-4.48,0-1,4.67-1,4.67l-1.21.66s-1,2.67,1.12,4l1.09-.37a3,3,0,0,0,1.17,1.6c.87.54,5.15-.67,5.15-.67Z" style="fill:#b55b52"></path></g><g id="freepik--Table--inject-17"><path d="M225.74,295.25a1,1,0,0,0,0-2H197.85a1,1,0,0,0,0,2Z" style="fill:#B470F0"></path><path d="M225.74,295.25a1,1,0,0,0,0-2H197.85a1,1,0,0,0,0,2Z" style="fill:#fff;opacity:0.5"></path><path d="M223.37,293.48l3.71-26.41a2.1,2.1,0,0,1,2-1.76h3.56v29.93h-7.77A1.49,1.49,0,0,1,223.37,293.48Z" style="fill:#B470F0"></path><path d="M223.37,293.48l3.71-26.41a2.1,2.1,0,0,1,2-1.76h3.56v29.93h-7.77A1.49,1.49,0,0,1,223.37,293.48Z" style="fill:#fff;opacity:0.6000000000000001"></path><path d="M226.42,295.24H258a2.1,2.1,0,0,0,2-1.76l3.71-26.41a1.5,1.5,0,0,0-1.51-1.76H230.62a2.08,2.08,0,0,0-2,1.76l-3.72,26.41A1.5,1.5,0,0,0,226.42,295.24Z" style="fill:#B470F0"></path><path d="M226.42,295.24H258a2.1,2.1,0,0,0,2-1.76l3.71-26.41a1.5,1.5,0,0,0-1.51-1.76H230.62a2.08,2.08,0,0,0-2,1.76l-3.72,26.41A1.5,1.5,0,0,0,226.42,295.24Z" style="fill:#fff;opacity:0.5"></path><path d="M241.67,281.64a2.3,2.3,0,0,0,2.33,2.71,3.24,3.24,0,0,0,3.1-2.71,2.31,2.31,0,0,0-2.34-2.71A3.22,3.22,0,0,0,241.67,281.64Z" style="fill:#fff;opacity:0.7000000000000001"></path><polygon points="129.41 413.95 132.03 413.95 135.39 301.78 131.94 301.78 129.41 413.95" style="fill:#263238"></polygon><polygon points="129.41 413.95 132.03 413.95 135.39 301.78 131.94 301.78 129.41 413.95" style="fill:#fff;opacity:0.6000000000000001"></polygon><polygon points="171.57 301.78 171.57 413.95 168.8 413.95 165.54 306.9 132.16 306.9 129.72 413.95 126.98 413.95 126.98 301.78 171.57 301.78" style="fill:#263238"></polygon><polygon points="171.57 301.78 171.57 413.95 168.8 413.95 165.54 306.9 132.16 306.9 129.72 413.95 126.98 413.95 126.98 301.78 171.57 301.78" style="fill:#fff;opacity:0.4"></polygon><polygon points="171.57 413.95 174.18 413.95 175.02 301.78 171.57 301.78 171.57 413.95" style="fill:#263238"></polygon><polygon points="171.57 413.95 174.18 413.95 175.02 301.78 171.57 301.78 171.57 413.95" style="fill:#fff;opacity:0.6000000000000001"></polygon><polygon points="271.31 413.95 273.92 413.95 277.29 301.78 273.83 301.78 271.31 413.95" style="fill:#263238"></polygon><polygon points="271.31 413.95 273.92 413.95 277.29 301.78 273.83 301.78 271.31 413.95" style="fill:#fff;opacity:0.6000000000000001"></polygon><polygon points="313.46 301.78 313.46 413.95 310.7 413.95 307.44 306.9 274.06 306.9 271.62 413.95 268.88 413.95 268.88 301.78 313.46 301.78" style="fill:#263238"></polygon><polygon points="313.46 301.78 313.46 413.95 310.7 413.95 307.44 306.9 274.06 306.9 271.62 413.95 268.88 413.95 268.88 301.78 313.46 301.78" style="fill:#fff;opacity:0.4"></polygon><polygon points="313.46 413.95 316.08 413.95 316.92 301.78 313.46 301.78 313.46 413.95" style="fill:#263238"></polygon><polygon points="313.46 413.95 316.08 413.95 316.92 301.78 313.46 301.78 313.46 413.95" style="fill:#fff;opacity:0.6000000000000001"></polygon><rect x="173.72" y="295.33" width="147.77" height="6.45" transform="translate(495.22 597.1) rotate(180)" style="fill:#263238"></rect><rect x="173.72" y="295.33" width="147.77" height="6.45" transform="translate(495.22 597.1) rotate(180)" style="fill:#fff;opacity:0.5"></rect><rect x="122.4" y="295.33" width="55.34" height="6.45" transform="translate(300.14 597.1) rotate(180)" style="fill:#263238"></rect><rect x="122.4" y="295.33" width="55.34" height="6.45" transform="translate(300.14 597.1) rotate(180)" style="fill:#fff;opacity:0.30000000000000004"></rect></g><g id="freepik--chart-4--inject-17"><circle cx="335.05" cy="196.75" r="18.87" transform="matrix(0.98, -0.2, 0.2, 0.98, -32.1, 69.58)" style="fill:#263238"></circle><path d="M335.05,196.75l13.15,13.53a18.86,18.86,0,1,1-12.59-32.39Z" style="fill:#B470F0"></path><path d="M335.05,196.75l13.15,13.53a18.86,18.86,0,0,1-15.32,5.21Z" style="fill:#fff;opacity:0.5"></path><path d="M335.05,196.75l16.34,9.43a18.4,18.4,0,0,1-3,3.91,19,19,0,0,1-26.68,0,19.37,19.37,0,0,1-1.91-2.23Z" style="fill:#fff;opacity:0.4"></path><path d="M328,203.84a10,10,0,1,1,14.17,0A10,10,0,0,1,328,203.84Z" style="fill:#fff"></path><path d="M395,181.21h-24a.34.34,0,0,1,0-.68h24a.34.34,0,1,1,0,.68Z" style="fill:#263238"></path><path d="M390.9,189.15h-20a.34.34,0,0,1,0-.68h20a.34.34,0,0,1,0,.68Z" style="fill:#263238"></path><path d="M399.06,197.09H370.94a.34.34,0,0,1,0-.68h28.12a.34.34,0,1,1,0,.68Z" style="fill:#263238"></path><path d="M395,205h-24a.34.34,0,0,1-.34-.34.34.34,0,0,1,.34-.34h24a.34.34,0,0,1,.34.34A.34.34,0,0,1,395,205Z" style="fill:#263238"></path><path d="M396.34,213h-25.4a.34.34,0,0,1-.34-.34.34.34,0,0,1,.34-.34h25.4a.34.34,0,0,1,.34.34A.34.34,0,0,1,396.34,213Z" style="fill:#263238"></path><rect x="360.36" y="178.52" width="4.84" height="4.71" style="fill:#263238"></rect><rect x="360.36" y="186.46" width="4.84" height="4.71" style="fill:#263238"></rect><rect x="360.36" y="194.4" width="4.84" height="4.71" style="fill:#B470F0"></rect><rect x="360.36" y="202.34" width="4.84" height="4.71" style="fill:#B470F0"></rect><rect x="360.36" y="210.28" width="4.84" height="4.71" style="fill:#B470F0"></rect><rect x="360.36" y="186.46" width="4.84" height="4.71" style="fill:#fff;opacity:0.4"></rect><rect x="360.36" y="202.34" width="4.84" height="4.71" style="fill:#fff;opacity:0.4"></rect><rect x="360.36" y="210.28" width="4.84" height="4.71" style="fill:#fff;opacity:0.6000000000000001"></rect><path d="M401.17,223.12H314.86a8.44,8.44,0,0,1-8.43-8.43V176.28a8.44,8.44,0,0,1,8.43-8.43h86.31a8.44,8.44,0,0,1,8.43,8.43v38.41A8.44,8.44,0,0,1,401.17,223.12Zm-86.31-54.27a7.45,7.45,0,0,0-7.43,7.43v38.41a7.44,7.44,0,0,0,7.43,7.43h86.31a7.43,7.43,0,0,0,7.43-7.43V176.28a7.44,7.44,0,0,0-7.43-7.43Z" style="fill:#B470F0"></path></g><g id="freepik--chart-3--inject-17"><rect x="223.66" y="190.47" width="2.72" height="49.78" style="fill:#B470F0"></rect><rect x="223.66" y="190.47" width="2.72" height="49.78" style="isolation:isolate;opacity:0.2"></rect><rect x="228.18" y="201.52" width="2.72" height="38.73" style="fill:#263238"></rect><rect x="228.18" y="201.52" width="2.72" height="38.73" style="fill:#fff;opacity:0.4"></rect><rect x="214.62" y="219.95" width="2.72" height="20.3" style="fill:#B470F0"></rect><rect x="219.14" y="212.58" width="2.72" height="27.67" style="fill:#B470F0"></rect><rect x="232.7" y="197.84" width="2.72" height="42.41" style="fill:#263238"></rect><rect x="228.18" y="206.51" width="2.72" height="33.74" style="fill:#fff;opacity:0.4"></rect><rect x="232.7" y="204.44" width="2.72" height="35.81" style="fill:#fff;opacity:0.4"></rect><rect x="223.66" y="194.86" width="2.72" height="45.39" style="fill:#B470F0"></rect><rect x="219.14" y="222.4" width="2.72" height="17.85" style="fill:#fff;opacity:0.4"></rect><rect x="214.62" y="219.95" width="2.72" height="20.3" style="fill:#fff;opacity:0.2"></rect><rect x="214.62" y="224.57" width="2.72" height="15.68" style="fill:#fff;opacity:0.4"></rect><path d="M236.86,240.42H213.18a.17.17,0,1,1,0-.34h23.68a.17.17,0,0,1,0,.34Z" style="fill:#263238"></path><rect x="261.52" y="201.52" width="2.72" height="38.73" style="fill:#B470F0"></rect><rect x="261.52" y="201.52" width="2.72" height="38.73" style="isolation:isolate;opacity:0.2"></rect><rect x="266.04" y="202.59" width="2.72" height="37.66" style="fill:#263238"></rect><rect x="266.04" y="202.59" width="2.72" height="37.66" style="fill:#fff;opacity:0.4"></rect><rect x="252.48" y="209.01" width="2.72" height="31.24" style="fill:#B470F0"></rect><rect x="257" y="208.11" width="2.72" height="32.14" style="fill:#B470F0"></rect><rect x="270.56" y="212.11" width="2.72" height="28.14" style="fill:#263238"></rect><rect x="266.04" y="207.44" width="2.72" height="32.81" style="fill:#fff;opacity:0.4"></rect><rect x="270.56" y="216.49" width="2.72" height="23.76" style="fill:#fff;opacity:0.4"></rect><rect x="261.52" y="204.94" width="2.72" height="35.31" style="fill:#B470F0"></rect><rect x="257" y="213.7" width="2.72" height="26.55" style="fill:#fff;opacity:0.4"></rect><rect x="252.48" y="209.01" width="2.72" height="31.24" style="fill:#fff;opacity:0.2"></rect><rect x="252.48" y="216.12" width="2.72" height="24.13" style="fill:#fff;opacity:0.4"></rect><path d="M274.72,240.42H251a.17.17,0,1,1,0-.34h23.68a.17.17,0,0,1,0,.34Z" style="fill:#263238"></path><path d="M278.31,251.13H210.26a8.44,8.44,0,0,1-8.43-8.43V190.28a8.44,8.44,0,0,1,8.43-8.43h68.05a8.44,8.44,0,0,1,8.43,8.43V242.7A8.44,8.44,0,0,1,278.31,251.13Zm-68.05-68.28a7.45,7.45,0,0,0-7.43,7.43V242.7a7.44,7.44,0,0,0,7.43,7.43h68.05a7.44,7.44,0,0,0,7.43-7.43V190.28a7.45,7.45,0,0,0-7.43-7.43Z" style="fill:#B470F0"></path></g><g id="freepik--chart-2--inject-17"><g style="isolation:isolate;opacity:0.2"><polygon points="348.26 148.04 279.17 148.04 279.17 109.3 279.73 109.3 279.73 147.48 348.26 147.48 348.26 148.04"></polygon></g><rect x="282.79" y="141.61" width="2.99" height="5.6" style="isolation:isolate;opacity:0.2"></rect><rect x="282.79" y="141.61" width="2.99" height="1.63" style="fill:#B470F0"></rect><rect x="288.88" y="132.66" width="2.99" height="14.55" style="isolation:isolate;opacity:0.2"></rect><rect x="288.88" y="132.66" width="2.99" height="4.24" style="fill:#B470F0"></rect><rect x="294.98" y="136.01" width="2.99" height="11.19" style="isolation:isolate;opacity:0.2"></rect><rect x="294.98" y="136.01" width="2.99" height="3.26" style="fill:#B470F0"></rect><rect x="301.08" y="130.87" width="2.99" height="16.34" style="isolation:isolate;opacity:0.2"></rect><rect x="301.08" y="130.87" width="2.99" height="4.76" style="fill:#B470F0"></rect><rect x="307.17" y="126.12" width="2.99" height="21.08" style="isolation:isolate;opacity:0.2"></rect><rect x="307.17" y="126.12" width="2.99" height="6.14" style="fill:#B470F0"></rect><rect x="313.27" y="122.53" width="2.99" height="24.68" style="isolation:isolate;opacity:0.2"></rect><rect x="313.27" y="122.53" width="2.99" height="7.18" style="fill:#B470F0"></rect><rect x="319.37" y="126.68" width="2.99" height="20.52" style="isolation:isolate;opacity:0.2"></rect><rect x="319.37" y="126.68" width="2.99" height="5.98" style="fill:#B470F0"></rect><rect x="325.46" y="125.79" width="2.99" height="21.42" style="isolation:isolate;opacity:0.2"></rect><rect x="325.46" y="125.79" width="2.99" height="6.24" style="fill:#B470F0"></rect><rect x="331.56" y="120.32" width="2.99" height="26.88" style="isolation:isolate;opacity:0.2"></rect><rect x="331.56" y="120.32" width="2.99" height="7.83" style="fill:#B470F0"></rect><rect x="337.66" y="114.81" width="2.99" height="32.39" style="isolation:isolate;opacity:0.2"></rect><rect x="337.66" y="114.81" width="2.99" height="9.43" style="fill:#B470F0"></rect><rect x="343.76" y="110" width="2.99" height="37.21" style="isolation:isolate;opacity:0.2"></rect><rect x="343.76" y="110" width="2.99" height="10.83" style="fill:#B470F0"></rect><rect x="294.98" y="103.45" width="36.97" height="1.54" style="isolation:isolate;opacity:0.2"></rect><path d="M350.29,157.93H276.64a8.45,8.45,0,0,1-8.44-8.43V98.05a8.45,8.45,0,0,1,8.44-8.43h73.65a8.44,8.44,0,0,1,8.43,8.43V149.5A8.44,8.44,0,0,1,350.29,157.93ZM276.64,90.62a7.44,7.44,0,0,0-7.44,7.43V149.5a7.44,7.44,0,0,0,7.44,7.43h73.65a7.43,7.43,0,0,0,7.43-7.43V98.05a7.43,7.43,0,0,0-7.43-7.43Z" style="fill:#B470F0"></path></g><g id="freepik--chart-1--inject-17"><path d="M147.13,158.7s13-21.12,17.06-21.49S173,149.12,176.38,148s23.09-36.09,27.6-35.15,11.64,19.76,13.33,19.45,3.94-3.77,8.82,5.85A207,207,0,0,1,235,158.7Z" style="fill:#B470F0"></path><path d="M147.13,158.7s13-21.12,17.06-21.49S173,149.12,176.38,148s23.09-36.09,27.6-35.15,11.64,19.76,13.33,19.45,3.94-3.77,8.82,5.85A207,207,0,0,1,235,158.7Z" style="fill:#fff;opacity:0.4"></path><path d="M226.13,158.7s-16.51-36.24-21.77-37.88-12.4,14.42-16,17.28-9.34-10.47-11.69-10.66S163.61,148.29,160,148.1s-4.13-2.92-7.89-4.47-13.33,15.07-13.33,15.07Z" style="fill:#B470F0"></path><path d="M229.14,158.7s-8.09-13.61-11.28-16.8-7.7,8-10.9,8.4-15-22.29-18.4-24-10.32,18.4-13.61,18.77-10-12.16-13.61-12.84-19.91,26.45-19.91,26.45Z" style="fill:#263238"></path><path d="M229.14,158.7s-8.09-13.61-11.28-16.8-7.7,8-10.9,8.4-15-22.29-18.4-24-10.32,18.4-13.61,18.77-10-12.16-13.61-12.84-19.91,26.45-19.91,26.45Z" style="fill:#fff;opacity:0.4"></path><rect x="136.56" y="158.37" width="99.53" height="0.66" style="fill:#263238"></rect><path d="M226.88,158.7s-4-10-7.34-9.82-4.69,7.48-7.88,7.1-6.95-12-11.74-11.45-5.73,7.51-8.73,8.83-8.89-7.63-12.68-8.85S170.16,155.23,166,156s-5.82-4.9-8.26-4.42-9.34,7.14-9.34,7.14Z" style="fill:#263238"></path><path d="M236,169.35H136.55a8.44,8.44,0,0,1-8.43-8.43V110.55a8.44,8.44,0,0,1,8.43-8.43H236a8.44,8.44,0,0,1,8.43,8.43v50.37A8.44,8.44,0,0,1,236,169.35Zm-99.44-66.23a7.43,7.43,0,0,0-7.43,7.43v50.37a7.43,7.43,0,0,0,7.43,7.43H236a7.43,7.43,0,0,0,7.43-7.43V110.55a7.43,7.43,0,0,0-7.43-7.43Z" style="fill:#B470F0"></path></g></svg>
